<?xml version="1.0" encoding="UTF-8" standalone="no"?>
<!-- Created with Inkscape (http://www.inkscape.org/) -->

<svg
   version="1.1"
   id="svg1"
   width="44.799999"
   height="44.48"
   viewBox="0 0 44.799999 44.48"
   sodipodi:docname="logo-marvin.png"
   xmlns:inkscape="http://www.inkscape.org/namespaces/inkscape"
   xmlns:sodipodi="http://sodipodi.sourceforge.net/DTD/sodipodi-0.dtd"
   xmlns="http://www.w3.org/2000/svg"
   xmlns:svg="http://www.w3.org/2000/svg">
  <defs
     id="defs1" />
  <sodipodi:namedview
     id="namedview1"
     pagecolor="#505050"
     bordercolor="#eeeeee"
     borderopacity="1"
     inkscape:showpageshadow="0"
     inkscape:pageopacity="0"
     inkscape:pagecheckerboard="0"
     inkscape:deskcolor="#d1d1d1"
     showgrid="false" />
  <g
     inkscape:groupmode="layer"
     inkscape:label="Image"
     id="g1">
    <path
       style="fill:#000000"
       d="M 9.2799998,40 H 5.4399999 v -0.32 -0.32 h 0.48 0.48 v -0.28531 -0.285309 l 0.88,-0.219622 0.88,-0.219622 0.5137223,-0.462784 0.5137223,-0.462784 0.5262776,0.201952 L 10.24,37.828472 v 0.260338 0.260338 L 11.2,38.56 12.16,38.770851 V 39.065425 39.36 h 0.48 0.48 V 39.68 40 Z m 5.8233762,0 h -1.23671 L 13.653333,39.786666 13.44,39.573333 13.443351,36.346666 13.446702,33.12 16.163351,30.427494 18.88,27.734988 18.847332,22.747494 18.814663,17.76 18.48104,18.8 18.147417,19.84 h -0.239018 -0.239018 l -0.202403,0.806435 -0.202402,0.806436 -0.689995,0.793564 L 15.884585,23.04 h -1.195626 -1.195626 l -0.139915,-0.4 -0.139915,-0.4 -0.631948,0.56 -0.631949,0.56 H 11.094803 10.24 v 0.48 0.48 h -0.4400002 -0.44 l -0.2,-1 -0.2,-1 v -0.725764 -0.725763 l -0.4799999,-0.184194 -0.48,-0.184193 0.00553,-1.370043 0.00553,-1.370043 0.7794537,-0.739133 0.7794538,-0.739133 1.3424276,0.09913 1.342427,0.09913 0.35259,0.601142 0.352591,0.601142 -0.372,0.136191 -0.372,0.136191 1.102666,1.102667 L 14.421333,20.16 H 14.890666 15.36 V 19.68 19.2 h 0.294574 0.294574 L 16.16,18.24 16.370851,17.28 h 0.259884 0.259884 l 0.210489,-0.838656 0.210489,-0.838656 0.441344,-0.441344 L 18.194285,14.72 H 18.537143 18.88 V 10.619869 6.5197383 l 0.88,-0.823919 0.88,-0.823919 0.8,-0.2390802 L 22.24,4.39374 22.454571,4.0591285 22.669143,3.7245169 24.614571,3.5837974 26.56,3.4430778 V 3.8015389 4.16 H 25.138885 23.71777 L 23.52,4.48 23.322229,4.8 h 1.75861 1.758611 L 26.939725,3.76 27.04,2.72 28.200198,2.6230559 29.360397,2.5261118 29.857341,3.0230559 30.354285,3.52 h 2.03174 2.03174 l 0.631117,0.72 0.631117,0.7199999 0.16,10.5341731 0.16,10.534174 0.96,0.581075 0.96,0.581075 0.72,0.316831 0.72,0.316831 V 28.152079 28.48 h 0.430404 0.430404 l 0.529596,0.585197 0.529596,0.585197 -0.0047,2.854803 -0.0047,2.854803 -0.404337,0.8 -0.404336,0.8 -1.391427,0.04661 -1.391428,0.04661 -0.202724,0.328015 -0.202724,0.328015 -0.84173,0.21126 -0.841729,0.211261 -0.894935,0.93411 L 33.800261,40 H 32.779313 31.758364 L 31.359999,39.52 30.961635,39.04 H 23.835054 16.708473 L 16.524279,39.52 16.340086,40 Z M 23.68,38.4 h 9.599999 V 36 33.6 H 23.68 14.08 v 2.4 2.4 z m 10.488105,-0.21463 0.238305,-0.374629 0.876795,-0.220061 0.876794,-0.220062 v -0.259883 -0.259884 l 0.96,-0.210851 0.96,-0.210852 0.0037,-0.214574 0.0037,-0.214574 1.276329,-0.611482 1.276328,-0.611482 v -2.15856 -2.15856 l -0.64,0.167364 -0.64,0.167364 v 0.257252 0.257252 l -0.96,0.210852 -0.96,0.210851 V 32 32.269148 l -0.96,0.210852 -0.96,0.210851 v 0.259884 0.259884 l -0.8,0.200787 -0.8,0.200787 0.0049,2.473903 L 33.9298,38.56 Z M 23.964761,32.96 h 9.315238 V 32.658885 32.357771 L 32.978488,32.171426 32.676977,31.985082 32.462154,30.552541 32.247331,29.12 h -0.283666 -0.283666 v -0.48 -0.48 h -6.075982 -6.075982 l -2.439256,2.4 -2.439257,2.4 z m 10.233227,-0.252025 0.208422,-0.337234 0.876795,-0.220061 0.876794,-0.220061 v -0.259884 -0.259884 l 0.96,-0.210851 0.96,-0.210852 V 30.72 30.450851 l 0.96,-0.210851 0.96,-0.210852 V 29.574574 29.12 H 39.509956 39.019913 L 38.83572,28.64 38.651527,28.16 H 38.22862 37.805714 l -0.552728,-0.552728 -0.552727,-0.552727 h -1.246296 -1.246297 l -0.223833,0.336069 -0.223834,0.336068 -0.554435,0.204481 -0.554436,0.20448 0.199464,1.052178 0.199464,1.052179 0.23802,0.32 0.238021,0.32 0.231734,1.082605 0.231735,1.082604 z M 25.6,27.52 h 6.079999 L 31.619529,18.8 31.559059,10.08 31.37953,12.96 31.2,15.84 H 25.6 20 L 19.90799,12.88 19.81598,9.9199999 h 5.556587 5.556586 l -0.140898,-0.96 -0.140898,-0.96 h -5.08368 -5.08368 v 0.8 0.8 H 20.139725 19.79945 l 0.100275,-1.04 0.100275,-1.04 h 5.6 5.599999 l 0.101256,0.88 0.101255,0.88 h 0.234488 0.234489 l -0.132383,-1.2 -0.132383,-1.2 -0.492957,-0.56 -0.492957,-0.56 H 25.621521 20.622234 L 20.071117,6.4036578 19.52,7.0473157 V 17.283658 27.52 Z m 7.930158,-0.714037 0.869841,-0.371058 0.4,-0.296635 0.4,-0.296635 V 15.640818 5.4399999 L 34.559999,4.8 l -0.64,-0.64 H 32.018885 30.11777 l -0.197771,0.32 -0.19777,0.32 0.418885,0.00511 0.418885,0.00511 1.04,0.9170286 1.04,0.9170286 v 1.1578599 1.15786 h 0.32 0.32 v -0.32 -0.32 h 0.64 0.64 v 0.133828 0.133828 l 0.173771,0.4528387 0.17377,0.4528386 H 33.923103 32.938666 L 32.709333,9.7866666 32.479999,10.08 l 0.09016,8.548511 0.09016,8.548511 z M 10.739607,22.72 h 1.139607 L 11.655193,21.2 11.431171,19.68 11.145946,19.495157 10.860722,19.310315 11.348389,18.375157 11.836057,17.44 l 0.002,-0.24 0.002,-0.24 H 10.72 9.5999998 v 0.32 0.32 h 0.2562033 0.2562029 l 0.0131,1.44 0.0131,1.44 H 9.8693029 9.5999998 v 1.12 1.12 z m 1.615403,-1.6 H 12.48 V 20 18.88 H 12.224256 11.968512 L 12.099266,20 12.23002,21.12 Z M 8.9599998,20.16 H 9.3866665 L 9.1733332,19.946666 8.9599998,19.733333 8.7466665,19.946666 8.5333332,20.16 Z m 0,-0.96 H 9.3866665 L 9.1733332,18.986666 8.9599998,18.773333 8.7466665,18.986666 8.5333332,19.2 Z m 0,-0.96 H 9.3866665 L 9.1733332,18.026666 8.9599998,17.813333 8.7466665,18.026666 8.5333332,18.24 Z M 25.6,15.36 h 5.119999 l -0.0097,-2 -0.0097,-2 -0.32617,0.56 -0.32617,0.56 h -1.561242 -1.561242 l -0.48,-0.48 -0.48,-0.48 H 25.497093 25.028472 L 24.844279,12 24.660086,12.48 H 23.0729 21.485714 L 20.982857,11.977143 20.48,11.474286 V 13.417143 15.36 Z M 25.54987,15.04 H 25.233073 L 25.339806,14.48 25.446539,13.92 26.16327,13.817744 26.88,13.715487 V 13.417744 13.12 h 0.662857 0.662857 l 0.457143,0.457143 0.457143,0.457143 v 0.129523 0.129524 H 27.617777 26.115555 L 25.991111,14.666667 25.866666,15.04 Z M 22.24,11.84 h 0.16 v -0.16 -0.16 h -0.16 -0.16 v 0.16 0.16 z m 0.96,0 h 0.16 V 11.68 11.52 H 23.2 23.04 v 0.16 0.16 z m 4.48,0 h 0.16 v -0.16 -0.16 h -0.16 -0.16 v 0.16 0.16 z m 0.96,0 h 0.16 v -0.16 -0.16 h -0.16 -0.16 v 0.16 0.16 z m -7.36,-0.96 h 0.16 v -0.16 -0.16 h -0.16 -0.16 v 0.16 0.16 z m 0.96,0 h 0.16 v -0.16 -0.16 h -0.16 -0.16 v 0.16 0.16 z m 4.48,0 h 0.16 v -0.16 -0.16 h -0.16 -0.16 v 0.16 0.16 z m 0.96,0 h 0.16 v -0.16 -0.16 h -0.16 -0.16 v 0.16 0.16 z M 9.7599998,34.56 h -0.48 v -0.32 -0.32 h 0.48 H 10.24 v 0.32 0.32 z m 0,-3.84 h -0.48 V 30.4 30.08 h 0.48 H 10.24 v 0.32 0.32 z m 0,-3.52 h -0.48 v -0.32 -0.32 h 0.48 H 10.24 v 0.32 0.32 z m 0,-1.92 h -0.48 v -0.32 -0.32 h 0.48 H 10.24 v 0.32 0.32 z"
       id="path1" />
  </g>
</svg>
